<?xml version="1.0" encoding="UTF-8" standalone="no"?>
<!-- Created with Inkscape (http://www.inkscape.org/) -->

<svg
   width="784.8717mm"
   height="793.75mm"
   viewBox="0 0 784.8717 793.75"
   version="1.1"
   id="svg5"
   xml:space="preserve"
   inkscape:version="1.2.2 (b0a8486541, 2022-12-01)"
   sodipodi:docname="logo.svg"
   inkscape:export-filename="logo.png"
   inkscape:export-xdpi="96"
   inkscape:export-ydpi="96"
   xmlns:inkscape="http://www.inkscape.org/namespaces/inkscape"
   xmlns:sodipodi="http://sodipodi.sourceforge.net/DTD/sodipodi-0.dtd"
   xmlns="http://www.w3.org/2000/svg"
   xmlns:svg="http://www.w3.org/2000/svg"><sodipodi:namedview
     id="namedview7"
     pagecolor="#ffffff"
     bordercolor="#000000"
     borderopacity="0.25"
     inkscape:showpageshadow="2"
     inkscape:pageopacity="0.0"
     inkscape:pagecheckerboard="0"
     inkscape:deskcolor="#d1d1d1"
     inkscape:document-units="mm"
     showgrid="false"
     inkscape:zoom="0.19353781"
     inkscape:cx="330.68474"
     inkscape:cy="1813.5991"
     inkscape:window-width="1272"
     inkscape:window-height="660"
     inkscape:window-x="0"
     inkscape:window-y="29"
     inkscape:window-maximized="0"
     inkscape:current-layer="layer1" /><defs
     id="defs2"><rect
       x="1102.9665"
       y="1888.5432"
       width="1689.5635"
       height="321.31712"
       id="rect5645" /><rect
       x="1412.6258"
       y="1720.7133"
       width="108.51887"
       height="213.53981"
       id="rect342" /><rect
       x="1047.729"
       y="1722.3381"
       width="1404.8624"
       height="788.76889"
       id="rect286" /><style
       id="style9"> .cls-1 { fill: #fff; } </style></defs><g
     inkscape:label="Layer 1"
     inkscape:groupmode="layer"
     id="layer1"
     transform="translate(343.56244,262.90032)"><g
       id="g72"
       transform="matrix(0.13353891,0,0,0.17950895,-343.81915,-6.6509837)"><g
         id="g43"><g
           id="g17"><line
             class="cls-1"
             y1="834.4444"
             x2="2966"
             y2="834.4444"
             id="line13"
             x1="0" /><rect
             y="796.9444"
             width="5878.3252"
             height="60.753891"
             id="rect15"
             x="0"
             style="fill:none;fill-opacity:1" /></g><g
           id="g23"><line
             class="cls-1"
             x1="0.44440001"
             y1="1334.4445"
             x2="2966.4443"
             y2="1334.4445"
             id="line19" /><rect
             x="0.4443"
             y="1296.9445"
             width="5890.3101"
             height="69.811493"
             id="rect21"
             style="fill:none;fill-opacity:0.11551455" /></g><g
           id="g29"><line
             class="cls-1"
             x1="0.44440001"
             y1="1834.4445"
             x2="2966.4443"
             y2="1834.4445"
             id="line25" /><rect
             x="0.4443"
             y="1796.9445"
             width="5882.8027"
             height="75.242638"
             id="rect27"
             style="fill:none;fill-opacity:1" /></g><g
           id="g35"><line
             class="cls-1"
             x1="0.44440001"
             y1="334.4444"
             x2="2966.4443"
             y2="334.4444"
             id="line31" /><rect
             x="0.4443"
             y="296.9444"
             width="5877.2759"
             height="69.060997"
             id="rect33"
             ry="0"
             style="fill:none;fill-opacity:1" /></g><g
           id="g41"><line
             class="cls-1"
             x1="0.44440001"
             y1="2334.4443"
             x2="2966.4443"
             y2="2334.4443"
             id="line37" /><rect
             x="0.4443"
             y="2296.9443"
             width="5875.5972"
             height="79.090935"
             id="rect39"
             style="fill:none;fill-opacity:1" /></g></g><g
         id="Treble_Clef"
         data-name="Treble Clef"><g
           id="document"><path
             d="m 1178.7407,2024.411 a 587.84382,461.37442 0 0 0 103.0224,15.7542 c 321.0546,26.1693 608.352,-156.8897 641.6934,-408.8734 21.4565,-162.1655 -84.738,-298.4011 -219.2041,-407.5111 -108.083,-87.7015 -188.667,-155.518 -248.704,-207.7568 l -67.0909,244.4063 c 213.241,60.8214 379.9063,230.2892 349.9003,398.4864 -31.9209,178.9269 -306.5882,290.6704 -389.8896,271.5659 a 373.68456,293.28963 0 0 0 62.1623,-30.1982 c 149.2731,-89.352 186.3086,-248.2038 82.7221,-354.8069 -40.9206,-42.1112 -97.6644,-69.7697 -160.5465,-82.3136 z m -28.3821,103.3937 -76.1511,277.4148 c -16.4093,60.8737 -18.7469,78.7968 -18.7469,97.1529 0,148.8254 153.7195,269.4781 343.3414,269.4781 a 341.95585,268.38707 0 0 0 222.3694,-64.1519 c -4.9492,0.2445 -9.9424,0.377 -14.9734,0.377 a 229.83434,180.38752 0 1 1 220.1618,-127.9819 c -44.8995,152.7682 -219.2819,266.6581 -427.5578,266.6581 -242.3313,0 -436.50907,-154.1889 -436.50907,-344.3794 0,-20.9324 -4.5559,-42.2201 0,-62.1197 l 95.00827,-346.1064 c -197.63157,-75.803 -351.31446,-253.5984 -351.31446,-435.2293 0,-240.0772 233.48989,-422.0148 517.08326,-422.0148 a 460.79033,361.65536 0 0 1 68.4366,4.0546 l 81.873,-298.25739 c -73.5298,-67.7454 -88.8435,-89.4863 -91.2361,-93.2796 C 1125.7878,686.5491 1004.7489,508.04706 979.79483,287.43791 950.13093,25.176667 1067.4911,-197.28404 1241.9266,-209.4327 c 174.4363,-12.15967 339.894,190.590287 369.5577,452.8559 12.1991,107.85122 -2.4745,207.01967 -24.2253,292.78803 l -51.4012,187.2489 c 403.7183,292.63167 610.889,471.83597 610.889,807.85477 0,342.355 -382.569,641.7005 -927.9383,606.785 a 305.61347,239.86344 0 0 1 -68.4499,-10.2951 z M 1024.015,1968.8319 a 581.21146,456.16896 0 0 0 60.306,26.8845 l 148.189,-539.837 c -67.8641,3.1927 -136.9407,22.4138 -197.0004,58.3642 -149.27287,89.3519 -169.41467,214.0845 -91.18537,368.3279 18.3451,36.1703 46.6154,64.3119 79.69077,86.2604 z M 1151.2414,33.349687 c -79.4872,110.625183 -27.9975,277.153803 98.6686,459.648713 49.1202,70.77034 127.7656,118.24748 197.6476,160.76633 3.1657,-9.76107 -4.1775,9.66438 0,0 127.2966,-294.48929 -25.5096,-595.384813 -252.3379,-634.473543 -14.5773,-2.50965 -29.2537,-4.00876 -43.9783,14.0585 z"
             id="path45"
             style="stroke-width:1.1501" /></g></g></g><text
       xml:space="preserve"
       transform="matrix(0.26458333,0,0,0.26458333,-343.56244,-262.90032)"
       id="text340"
       style="font-size:96px;white-space:pre;shape-inside:url(#rect342);display:inline;fill:#000000" /><text
       xml:space="preserve"
       transform="matrix(1.43826,0,0,1.7126148,-1691.094,-2943.6439)"
       id="text5643"
       style="font-style:normal;font-variant:normal;font-weight:normal;font-stretch:normal;font-size:96px;font-family:'Noto Sans Display';-inkscape-font-specification:'Noto Sans Display';white-space:pre;shape-inside:url(#rect5645);display:inline;fill:#000000"><tspan
         x="1102.9668"
         y="1975.891"
         id="tspan168">uister</tspan></text></g></svg>
